<svg width="34" height="32" viewBox="0 0 34 32" fill="none" xmlns="http://www.w3.org/2000/svg">
<path d="M26.9165 0H7.08348C5.52543 0 4.25 1.27585 4.25 2.83347V14.1669H7.08348V9.91695C7.08348 9.13792 7.7214 8.5 8.5 8.5H14.1665C14.9456 8.5 15.5831 9.13792 15.5831 9.91695V14.1669H18.4165V9.91695C18.4165 9.13792 19.0545 8.5 19.8335 8.5H25.5C26.279 8.5 26.9165 9.13792 26.9165 9.91695V14.1669H29.75V2.83347C29.75 1.27585 28.4746 0 26.9165 0Z" fill="white"/>
<path d="M34 25.5005H0V28.3335H2.83348V31.167H5.66653V28.3335H28.3335V31.167H31.1665V28.3335H34V25.5005Z" fill="white"/>
<path d="M32.5835 22.667V19.8335C32.5835 18.2759 31.3076 17.0004 29.75 17.0004H4.24998C2.6915 17.0004 1.4165 18.2759 1.4165 19.8335V22.667H32.5835Z" fill="white"/>
</svg>
