<svg width="30" height="29" viewBox="0 0 30 29" fill="none" xmlns="http://www.w3.org/2000/svg">
<path d="M28.7077 4.55054C28.3805 3.77656 27.8323 3.11625 27.1317 2.65222C26.4312 2.18819 25.6093 1.94104 24.769 1.94171H21.9232C21.9152 1.56932 21.7616 1.2149 21.4954 0.954378C21.2291 0.693861 20.8715 0.547974 20.499 0.547974C20.1265 0.547974 19.7688 0.693861 19.5026 0.954378C19.2364 1.2149 19.0828 1.56932 19.0748 1.94171H10.53C10.5219 1.56932 10.3683 1.2149 10.1021 0.954378C9.83588 0.693861 9.47821 0.547974 9.10573 0.547974C8.73325 0.547974 8.37558 0.693861 8.10937 0.954378C7.84315 1.2149 7.68955 1.56932 7.68149 1.94171H4.83367C4.27247 1.94119 3.71666 2.05134 3.19808 2.26586C2.67949 2.48038 2.20829 2.79506 1.81146 3.19189C1.41463 3.58873 1.09995 4.05992 0.885425 4.57851C0.670903 5.0971 0.560754 5.6529 0.561281 6.2141V24.7276C0.560754 25.2888 0.670903 25.8446 0.885425 26.3632C1.09995 26.8818 1.41463 27.353 1.81146 27.7498C2.20829 28.1466 2.67949 28.4613 3.19808 28.6758C3.71666 28.8903 4.27247 29.0005 4.83367 29H24.7711C25.3323 29.0005 25.8881 28.8903 26.4067 28.6758C26.9252 28.4613 27.3964 28.1466 27.7933 27.7498C28.1901 27.353 28.5048 26.8818 28.7193 26.3632C28.9338 25.8446 29.044 25.2888 29.0434 24.7276V6.2141C29.0444 5.64265 28.9302 5.07687 28.7077 4.55054ZM26.1956 24.7276C26.1953 25.1053 26.0451 25.4674 25.778 25.7345C25.5109 26.0016 25.1488 26.1518 24.7711 26.1522H4.83367C4.45596 26.1518 4.09382 26.0016 3.82674 25.7345C3.55965 25.4674 3.40945 25.1053 3.4091 24.7276V11.9104H26.1956V24.7276ZM26.1956 9.06259H3.4091V6.2141C3.40963 5.83651 3.55991 5.47454 3.82697 5.2076C4.09404 4.94066 4.45608 4.79055 4.83367 4.7902H7.68149C7.68955 5.16259 7.84315 5.51701 8.10937 5.77753C8.37558 6.03805 8.73325 6.18394 9.10573 6.18394C9.47821 6.18394 9.83588 6.03805 10.1021 5.77753C10.3683 5.51701 10.5219 5.16259 10.53 4.7902H19.0748C19.0828 5.16259 19.2364 5.51701 19.5026 5.77753C19.7688 6.03805 20.1265 6.18394 20.499 6.18394C20.8715 6.18394 21.2291 6.03805 21.4954 5.77753C21.7616 5.51701 21.9152 5.16259 21.9232 4.7902H24.7711C25.1486 4.79055 25.5107 4.94066 25.7778 5.2076C26.0448 5.47454 26.1951 5.83651 26.1956 6.2141V9.06259Z" fill="white"/>
<path d="M7.6834 16.2536V16.2883C7.6834 16.2996 7.6834 16.3116 7.68674 16.323L7.69075 16.3577C7.69075 16.369 7.69074 16.3811 7.69542 16.3924C7.70009 16.4038 7.69876 16.4158 7.70076 16.4271C7.70276 16.4385 7.70543 16.4498 7.70743 16.4612C7.70944 16.4725 7.71211 16.4839 7.71478 16.4952L7.72279 16.5293C7.72279 16.5406 7.7288 16.552 7.73213 16.5626C7.73547 16.5733 7.73814 16.5853 7.74148 16.5967C7.74482 16.608 7.74882 16.6187 7.75216 16.6301C7.7555 16.6414 7.7595 16.6521 7.76351 16.6628L7.77553 16.6955L7.78888 16.7275C7.79288 16.7382 7.79756 16.7489 7.80223 16.7596L7.81691 16.7916L7.83227 16.823L7.84829 16.8537L7.86498 16.8844L7.88234 16.9144C7.88834 16.9245 7.89435 16.9345 7.90103 16.9445L7.91972 16.9739L7.93908 17.0026L7.95977 17.0306L7.98113 17.0586C7.98781 17.068 7.99515 17.0767 8.0025 17.086C8.00984 17.0954 8.01785 17.104 8.02519 17.1127L8.04856 17.1394L8.07192 17.1648L8.09662 17.1901C8.1053 17.1982 8.11331 17.2068 8.12199 17.2142C8.13067 17.2215 8.13868 17.2309 8.14736 17.2382L8.17406 17.2616L8.20076 17.2843L8.22813 17.3056L8.25617 17.327L8.28421 17.3477L8.31291 17.367L8.34228 17.3857L8.37232 17.4044L8.40237 17.4218L8.43307 17.4385L8.46378 17.4545L8.49516 17.4699L8.5272 17.4845L8.55924 17.4979L8.59129 17.5112L8.624 17.5233L8.65671 17.5346L8.69008 17.5453L8.72346 17.5546L8.75751 17.564L8.79155 17.572L8.8256 17.5793L8.85964 17.586L8.89436 17.5913L8.92907 17.596L8.96378 17.6L8.9985 17.6034H9.03321H9.06859H9.13869H9.17407H9.20878L9.24349 17.6L9.27887 17.596L9.31292 17.5913L9.34763 17.586L9.38235 17.5793L9.41572 17.572L9.44977 17.564L9.48381 17.5546L9.51719 17.5453L9.55057 17.5346L9.58328 17.5233L9.61599 17.5112L9.6487 17.4979L9.68074 17.4845L9.71212 17.4699L9.7435 17.4545L9.7742 17.4385L9.80491 17.4218L9.83495 17.4044L9.86499 17.3857L9.89436 17.367L9.92307 17.3477L9.95177 17.327L9.97914 17.3056L10.0065 17.2843L10.0339 17.2616L10.0599 17.2382C10.0686 17.2309 10.0773 17.2222 10.0853 17.2142C10.0933 17.2062 10.1026 17.1982 10.1107 17.1901L10.1354 17.1648L10.1594 17.1394L10.1821 17.1127C10.1901 17.104 10.1974 17.0954 10.2048 17.086L10.2268 17.0586L10.2475 17.0306L10.2682 17.0026L10.2876 16.9739L10.3069 16.9445L10.3249 16.9144C10.3309 16.9044 10.337 16.8944 10.3423 16.8844C10.3476 16.8744 10.3536 16.8637 10.359 16.8537C10.3648 16.8437 10.3702 16.8335 10.375 16.823L10.3904 16.7916C10.3957 16.7809 10.4004 16.7702 10.405 16.7596L10.4191 16.7275L10.4318 16.6955L10.4438 16.6628C10.4478 16.6521 10.4518 16.6407 10.4551 16.6301C10.4585 16.6194 10.4625 16.6074 10.4658 16.5967L10.4758 16.5626C10.4758 16.552 10.4818 16.5406 10.4845 16.5293L10.4925 16.4952C10.4925 16.4839 10.4978 16.4725 10.4998 16.4612C10.5018 16.4498 10.5045 16.4385 10.5065 16.4271C10.5085 16.4158 10.5105 16.4038 10.5119 16.3924C10.5132 16.3811 10.5152 16.369 10.5172 16.3577C10.5192 16.3463 10.5172 16.335 10.5172 16.323C10.5172 16.311 10.5172 16.2996 10.5205 16.2883V16.2536C10.5205 16.2415 10.5205 16.2295 10.5205 16.2182C10.5205 16.2068 10.5205 16.1948 10.5205 16.1828C10.5205 16.1708 10.5205 16.1594 10.5205 16.1481C10.5205 16.1367 10.5205 16.1247 10.5205 16.1127V16.078C10.5205 16.066 10.5205 16.0546 10.5172 16.0426C10.5139 16.0306 10.5172 16.0199 10.5172 16.0079C10.5172 15.9959 10.5139 15.9852 10.5119 15.9738C10.5099 15.9625 10.5119 15.9505 10.5065 15.9391C10.5012 15.9278 10.5025 15.9164 10.4998 15.9044C10.4972 15.8924 10.4952 15.8817 10.4925 15.8704L10.4845 15.8363C10.4845 15.8257 10.4785 15.8143 10.4758 15.803L10.4658 15.7696C10.4658 15.7582 10.4591 15.7475 10.4551 15.7362C10.4511 15.7248 10.4478 15.7142 10.4438 15.7035L10.4318 15.6708L10.4191 15.6381L10.405 15.606C10.4004 15.596 10.3957 15.5853 10.3904 15.5746C10.385 15.564 10.3803 15.5533 10.375 15.5433C10.3703 15.5327 10.365 15.5224 10.359 15.5126C10.3536 15.5019 10.3483 15.4919 10.3423 15.4819C10.3363 15.4718 10.3309 15.4612 10.3249 15.4518L10.3069 15.4218C10.3009 15.4118 10.2942 15.4024 10.2876 15.3924L10.2682 15.3637C10.2615 15.3544 10.2548 15.3443 10.2475 15.335L10.2268 15.3076L10.2048 15.2803L10.1821 15.2529L10.1594 15.2268L10.1354 15.2008L10.1107 15.1761C10.1026 15.1674 10.094 15.1594 10.0853 15.1514L10.0599 15.1274L10.0339 15.1047L10.0065 15.082L9.97914 15.06L9.95177 15.0393L9.92307 15.0186L9.89436 14.9992L9.86499 14.9799L9.83495 14.9618L9.80491 14.9445L9.7742 14.9278L9.7435 14.9111L9.71212 14.8964L9.68074 14.8817L9.6487 14.8677L9.61599 14.855L9.58328 14.843L9.55057 14.8317L9.51719 14.821L9.48381 14.811L9.44977 14.8023L9.41572 14.7943L9.38235 14.7869L9.34763 14.7803L9.31292 14.7749L9.27887 14.7696L9.24349 14.7656H9.20878H9.17407H9.13869H9.06859H9.03321H8.9985H8.96378L8.92907 14.7696L8.89436 14.7749L8.85964 14.7803L8.8256 14.7869L8.79155 14.7943L8.75751 14.8023L8.72346 14.811L8.69008 14.821L8.65671 14.8317L8.624 14.843L8.59129 14.855L8.55924 14.8677L8.5272 14.8817L8.49516 14.8964L8.46378 14.9111L8.43307 14.9278L8.40237 14.9445L8.37232 14.9618L8.34228 14.9799L8.31291 14.9992L8.28421 15.0186L8.25617 15.0393L8.22813 15.06L8.20076 15.082L8.17406 15.1047L8.14736 15.1274L8.12199 15.1514L8.09662 15.1761L8.07192 15.2008L8.04856 15.2268L8.02519 15.2529L8.0025 15.2803C7.99515 15.2889 7.98781 15.2983 7.98113 15.3076C7.97446 15.317 7.96645 15.3256 7.95977 15.335L7.93908 15.3637L7.91972 15.3924L7.90103 15.4218C7.89435 15.4318 7.88834 15.4418 7.88234 15.4518C7.87633 15.4618 7.87099 15.4718 7.86498 15.4819C7.85897 15.4919 7.85363 15.5019 7.84829 15.5126L7.83227 15.5433C7.82693 15.5533 7.82159 15.564 7.81691 15.5746C7.81224 15.5853 7.8069 15.596 7.80223 15.606C7.79756 15.616 7.79288 15.6274 7.78888 15.6381C7.78487 15.6487 7.7802 15.6601 7.77553 15.6708L7.76351 15.7035C7.7595 15.7142 7.75617 15.7255 7.75216 15.7362C7.74816 15.7469 7.74482 15.7582 7.74148 15.7696C7.73814 15.7809 7.7348 15.7916 7.73213 15.803C7.72946 15.8143 7.72546 15.8257 7.72279 15.8363L7.71478 15.8704C7.71478 15.8817 7.7101 15.8931 7.70743 15.9044C7.70476 15.9158 7.70276 15.9278 7.70076 15.9391C7.69876 15.9505 7.69742 15.9618 7.69542 15.9738C7.69342 15.9859 7.69542 15.9965 7.69075 16.0079L7.68674 16.0426C7.68674 16.0546 7.68674 16.066 7.6834 16.078V16.1127C7.6834 16.1247 7.6834 16.1361 7.6834 16.1481C7.6834 16.1601 7.6834 16.1714 7.6834 16.1828C7.6834 16.1941 7.6834 16.2068 7.6834 16.2182C7.6834 16.2295 7.68273 16.2415 7.6834 16.2536Z" fill="white"/>
<path d="M13.3797 16.2535C13.3797 16.2649 13.3797 16.2762 13.3797 16.2883C13.3797 16.3003 13.3797 16.3116 13.3797 16.323L13.3837 16.3577C13.3837 16.369 13.3837 16.381 13.3884 16.3924L13.3944 16.4271L13.4004 16.4612C13.4004 16.4725 13.4058 16.4839 13.4078 16.4952C13.4098 16.5065 13.4131 16.5179 13.4165 16.5292C13.4198 16.5406 13.4218 16.5519 13.4251 16.5626L13.4352 16.5967L13.4452 16.63L13.4572 16.6628C13.4606 16.6739 13.4646 16.6848 13.4692 16.6955C13.4732 16.7061 13.4772 16.7168 13.4819 16.7275L13.4959 16.7596L13.5099 16.7916C13.5153 16.8016 13.5199 16.8123 13.5253 16.823L13.5413 16.8537L13.558 16.8844C13.564 16.8944 13.57 16.9044 13.5753 16.9144L13.594 16.9445L13.6127 16.9738L13.6327 17.0025L13.6528 17.0306L13.6741 17.0586L13.6962 17.086L13.7182 17.1127L13.7416 17.1394L13.7656 17.1648L13.7903 17.1901C13.7983 17.1981 13.8063 17.2068 13.815 17.2142L13.841 17.2382L13.8671 17.2616L13.8938 17.2843L13.9211 17.3056L13.9492 17.327L13.9772 17.3477L14.0066 17.367C14.0159 17.3737 14.0259 17.3797 14.036 17.3857C14.046 17.3917 14.0553 17.3984 14.0653 17.4044L14.0954 17.4218L14.1261 17.4385L14.1575 17.4545L14.1888 17.4698L14.2202 17.4845L14.2522 17.4979L14.2843 17.5112L14.317 17.5232L14.3504 17.5346L14.3831 17.5453L14.4171 17.5546L14.4505 17.564L14.4846 17.572L14.5186 17.5793L14.5533 17.586L14.5874 17.5913L14.6221 17.596L14.6568 17.6L14.6915 17.6034H14.7269H14.7616H14.8324H14.8671H14.9025L14.9372 17.6L14.9719 17.596L15.0066 17.5913L15.0406 17.586L15.0753 17.5793L15.1094 17.572L15.1434 17.564L15.1768 17.5546L15.2102 17.5453L15.2436 17.5346L15.2763 17.5232L15.309 17.5112L15.3417 17.4979L15.3737 17.4845L15.4051 17.4698L15.4365 17.4545L15.4679 17.4385L15.4979 17.4218L15.5286 17.4044C15.5386 17.3984 15.5486 17.3924 15.558 17.3857C15.5673 17.3791 15.578 17.3737 15.5874 17.367L15.6161 17.3477L15.6448 17.327L15.6728 17.3056L15.7002 17.2843L15.7269 17.2616L15.7529 17.2382L15.779 17.2142C15.7876 17.2068 15.7956 17.1981 15.8037 17.1901L15.8284 17.1648L15.8524 17.1394L15.8758 17.1127L15.8978 17.086L15.9198 17.0586L15.9412 17.0306L15.9612 17.0025L15.9812 16.9738L15.9999 16.9445C16.0059 16.9345 16.0126 16.9244 16.0179 16.9144L16.036 16.8844L16.0527 16.8537L16.0687 16.823C16.074 16.8123 16.0787 16.8016 16.0834 16.7916C16.088 16.7816 16.0934 16.7702 16.0981 16.7596L16.1121 16.7275C16.1167 16.7168 16.1207 16.7061 16.1248 16.6955C16.1293 16.6848 16.1334 16.6739 16.1368 16.6628L16.1488 16.63L16.1588 16.5967L16.1688 16.5626C16.1722 16.5519 16.1748 16.5406 16.1775 16.5292C16.1802 16.5179 16.1835 16.5065 16.1862 16.4952C16.1888 16.4839 16.1908 16.4725 16.1935 16.4612L16.2042 16.4278L16.2102 16.3931C16.2102 16.3817 16.2102 16.3697 16.2149 16.3583L16.2189 16.3236C16.2189 16.3123 16.2189 16.3003 16.2189 16.2889C16.2189 16.2776 16.2189 16.2656 16.2189 16.2542C16.2189 16.2429 16.2189 16.2302 16.2189 16.2188V16.1487C16.2189 16.1367 16.2189 16.1254 16.2189 16.1134C16.2189 16.1013 16.2189 16.09 16.2189 16.0786C16.2189 16.0673 16.2189 16.0553 16.2189 16.0433L16.2149 16.0085C16.2149 15.9972 16.2115 15.9859 16.2102 15.9745L16.2042 15.9398L16.1982 15.9051C16.1982 15.8937 16.1928 15.8824 16.1908 15.871C16.1888 15.8597 16.1855 15.8483 16.1822 15.837C16.1788 15.8256 16.1768 15.815 16.1735 15.8036L16.1635 15.7702L16.1535 15.7368L16.1414 15.7041C16.1381 15.693 16.1341 15.6821 16.1294 15.6714C16.1254 15.6607 16.1214 15.6494 16.1167 15.6387L16.1027 15.6067C16.0981 15.5967 16.0934 15.586 16.088 15.5753C16.0827 15.5646 16.0787 15.5539 16.0734 15.5439L16.0573 15.5132C16.052 15.5025 16.046 15.4925 16.0406 15.4825L16.0226 15.4525C16.0173 15.4425 16.0106 15.4324 16.0046 15.4224L15.9859 15.3931L15.9659 15.3644L15.9458 15.3356C15.9385 15.3263 15.9318 15.317 15.9245 15.3083L15.9025 15.2809L15.8804 15.2535L15.8571 15.2275L15.833 15.2015L15.8083 15.1768L15.7836 15.1521L15.7576 15.128L15.7316 15.1053L15.7049 15.0826L15.6775 15.0606L15.6495 15.0399L15.6207 15.0192C15.6114 15.0125 15.6021 15.0059 15.592 14.9999L15.5627 14.9805L15.5366 14.9591C15.5266 14.9531 15.5166 14.9471 15.5059 14.9418C15.4952 14.9364 15.4859 14.9304 15.4759 14.9251L15.4445 14.9084L15.4131 14.8937L15.3818 14.879L15.3497 14.865L15.317 14.8523L15.2843 14.8403L15.2516 14.829L15.2182 14.8183L15.1848 14.8083L15.1515 14.7996L15.1174 14.7916L15.0834 14.7842L15.0486 14.7776L15.0146 14.7722L14.9799 14.7669L14.9452 14.7629H14.9105H14.8751H14.8404H14.7696H14.7349H14.6995H14.6648L14.6301 14.7669L14.5954 14.7722L14.5613 14.7776L14.5266 14.7842L14.4926 14.7916L14.4585 14.7996L14.4251 14.8083L14.3911 14.8183L14.3584 14.829L14.325 14.8403L14.2923 14.8523L14.2603 14.865L14.2282 14.879L14.1968 14.8937L14.1655 14.9084L14.1341 14.9251L14.1034 14.9418L14.068 14.9591L14.0386 14.9772L14.0093 14.9965L13.9799 15.0159L13.9518 15.0366L13.9238 15.0573L13.8964 15.0793L13.8697 15.102L13.8437 15.1247L13.8177 15.1487L13.793 15.1734L13.7683 15.1981L13.7442 15.2242L13.7209 15.2502L13.6988 15.2776L13.6768 15.3049C13.6695 15.3136 13.6628 15.323 13.6554 15.3323L13.6354 15.361L13.6154 15.3897L13.5967 15.4191L13.578 15.4491L13.5607 15.4792C13.5553 15.4892 13.5493 15.4992 13.544 15.5099L13.5279 15.5406C13.5226 15.5506 13.5179 15.5613 13.5126 15.572L13.4986 15.6033L13.4846 15.6354C13.4799 15.6461 13.4759 15.6574 13.4719 15.6681C13.4672 15.6787 13.4632 15.6897 13.4599 15.7008L13.4478 15.7335L13.4378 15.7669L13.4278 15.8003C13.4278 15.8116 13.4218 15.823 13.4191 15.8336C13.4165 15.8443 13.4131 15.8563 13.4105 15.8677C13.4078 15.879 13.4058 15.8904 13.4031 15.9017L13.3971 15.9365L13.3911 15.9712C13.3911 15.9825 13.3878 15.9939 13.3864 16.0052L13.3824 16.0399C13.3824 16.0519 13.3824 16.0633 13.3824 16.0753C13.3824 16.0873 13.3824 16.0987 13.3824 16.11C13.3824 16.1214 13.3824 16.1334 13.3824 16.1454V16.2155C13.3791 16.2275 13.3791 16.2415 13.3797 16.2535Z" fill="white"/>
<path d="M19.0747 16.2536V16.2883C19.0747 16.2996 19.0747 16.3116 19.0747 16.323L19.0787 16.3577C19.0787 16.369 19.0787 16.3811 19.0841 16.3924C19.0894 16.4038 19.0874 16.4158 19.0894 16.4271C19.0914 16.4385 19.0934 16.4498 19.0961 16.4612C19.0987 16.4725 19.1007 16.4839 19.1034 16.4952L19.1114 16.5293C19.1114 16.5406 19.1174 16.552 19.1201 16.5626L19.1301 16.5967C19.1335 16.6074 19.1368 16.6187 19.1408 16.6301C19.1448 16.6414 19.1481 16.6521 19.1521 16.6628L19.1642 16.6955L19.1768 16.7275L19.1909 16.7596C19.1955 16.7702 19.2002 16.7809 19.2055 16.7916C19.2109 16.8023 19.2156 16.8123 19.2202 16.823C19.2249 16.8337 19.2309 16.8437 19.2369 16.8537C19.2429 16.8637 19.2476 16.8744 19.2536 16.8844C19.2596 16.8944 19.265 16.9044 19.271 16.9144L19.289 16.9445L19.3084 16.9739L19.3277 17.0026L19.3484 17.0306L19.3691 17.0586L19.3911 17.086C19.3985 17.0954 19.4058 17.104 19.4138 17.1127L19.4365 17.1394L19.4606 17.1648L19.4853 17.1901C19.4933 17.1982 19.5019 17.2068 19.5106 17.2142C19.5193 17.2215 19.5273 17.2309 19.536 17.2382L19.562 17.2616L19.5894 17.2843L19.6168 17.3056L19.6441 17.327L19.6728 17.3477L19.7015 17.367L19.7309 17.3857L19.761 17.4044L19.791 17.4218L19.8217 17.4385L19.8524 17.4545L19.8838 17.4699L19.9152 17.4845L19.9472 17.4979L19.9799 17.5112L20.0126 17.5233L20.0453 17.5346L20.0787 17.5453L20.1121 17.5546L20.1461 17.564L20.1795 17.572L20.2136 17.5793L20.2483 17.586L20.283 17.5913L20.317 17.596L20.3524 17.6L20.3871 17.6034H20.4218H20.4572H20.5273H20.5627H20.5974L20.6321 17.6L20.6668 17.596L20.7016 17.5913L20.7363 17.586L20.7703 17.5793L20.8044 17.572L20.8384 17.564L20.8724 17.5546L20.9058 17.5453L20.9392 17.5346L20.9719 17.5233L21.0046 17.5112L21.0367 17.4979L21.0687 17.4845L21.1008 17.4699L21.1321 17.4545L21.1628 17.4385L21.1935 17.4218L21.2236 17.4044L21.2536 17.3857L21.283 17.367L21.3117 17.3477L21.3397 17.327L21.3678 17.3056L21.3952 17.2843L21.4219 17.2616L21.4486 17.2382L21.4739 17.2142C21.4826 17.2068 21.4906 17.1982 21.4993 17.1901C21.508 17.1821 21.516 17.1735 21.5233 17.1648L21.5474 17.1394L21.5707 17.1127C21.5781 17.104 21.5861 17.0954 21.5934 17.086C21.6008 17.0767 21.6081 17.068 21.6148 17.0586L21.6361 17.0306L21.6568 17.0026L21.6762 16.9739L21.6949 16.9445C21.7016 16.9345 21.7076 16.9245 21.7136 16.9144L21.7309 16.8844L21.7476 16.8537L21.7636 16.823L21.779 16.7916L21.7937 16.7596C21.7984 16.7489 21.803 16.7382 21.807 16.7275L21.8204 16.6955L21.8324 16.6628C21.8364 16.6521 21.8397 16.6407 21.8438 16.6301C21.8478 16.6194 21.8511 16.6074 21.8544 16.5967C21.8578 16.586 21.8611 16.574 21.8638 16.5626C21.8664 16.5513 21.8705 16.5406 21.8731 16.5293L21.8811 16.4952C21.8811 16.4839 21.8858 16.4725 21.8885 16.4612C21.8911 16.4498 21.8932 16.4385 21.8952 16.4271C21.8972 16.4158 21.8952 16.4038 21.9005 16.3924C21.9058 16.3811 21.9038 16.369 21.9052 16.3577L21.9092 16.323C21.9092 16.3116 21.9092 16.2996 21.9125 16.2883V16.2536C21.9125 16.2415 21.9125 16.2295 21.9125 16.2182C21.9125 16.2068 21.9125 16.1948 21.9125 16.1828C21.9125 16.1708 21.9125 16.1594 21.9125 16.1481C21.9125 16.1367 21.9125 16.1247 21.9125 16.1127V16.078C21.9125 16.066 21.9125 16.0546 21.9092 16.0426L21.9052 16.0079C21.9052 15.9965 21.9052 15.9852 21.9005 15.9738C21.8958 15.9625 21.8972 15.9505 21.8952 15.9391C21.8932 15.9278 21.8905 15.9164 21.8885 15.9044C21.8865 15.8924 21.8838 15.8817 21.8811 15.8704L21.8731 15.8363C21.8731 15.8257 21.8671 15.8143 21.8638 15.803C21.8604 15.7916 21.8578 15.7803 21.8544 15.7696C21.8511 15.7589 21.8471 15.7475 21.8438 15.7362C21.8404 15.7248 21.8364 15.7142 21.8324 15.7035L21.8204 15.6708C21.8157 15.6601 21.8117 15.6487 21.807 15.6381C21.8024 15.6274 21.7984 15.6167 21.7937 15.606C21.789 15.5953 21.7837 15.5853 21.779 15.5746C21.7743 15.564 21.769 15.5533 21.7636 15.5433L21.7476 15.5126C21.7423 15.5019 21.7363 15.4919 21.7309 15.4819C21.7256 15.4718 21.7196 15.4612 21.7136 15.4518C21.7076 15.4425 21.7016 15.4318 21.6949 15.4218L21.6762 15.3924L21.6568 15.3637L21.6361 15.335C21.6295 15.3256 21.6221 15.3163 21.6148 15.3076C21.6074 15.2989 21.6008 15.2889 21.5934 15.2803L21.5707 15.2529L21.5474 15.2268C21.54 15.2182 21.5313 15.2095 21.5233 15.2008L21.4993 15.1761L21.4739 15.1514L21.4486 15.1274L21.4219 15.1047L21.3952 15.082L21.3678 15.06L21.3397 15.0393L21.3117 15.0186L21.283 14.9992L21.2536 14.9799L21.2236 14.9618L21.1935 14.9445L21.1628 14.9278L21.1321 14.9111L21.1008 14.8964L21.0687 14.8817L21.0367 14.8677L21.0046 14.855L20.9719 14.843L20.9392 14.8317L20.9058 14.821L20.8724 14.811L20.8384 14.8023L20.8044 14.7943L20.7703 14.7869L20.7363 14.7803L20.7016 14.7749L20.6668 14.7696L20.6321 14.7656H20.5974H20.5627H20.5273H20.4572H20.4218H20.3871H20.3524L20.317 14.7696L20.283 14.7749L20.2483 14.7803L20.2136 14.7869L20.1795 14.7943L20.1461 14.8023L20.1121 14.811L20.0787 14.821L20.0453 14.8317L20.0126 14.843L19.9799 14.855L19.9472 14.8677L19.9152 14.8817L19.8838 14.8964L19.8524 14.9111L19.8217 14.9278L19.791 14.9445L19.761 14.9618L19.7309 14.9799L19.7015 14.9992L19.6728 15.0186L19.6441 15.0393L19.6168 15.06L19.5894 15.082L19.562 15.1047L19.536 15.1274L19.5106 15.1514C19.5019 15.1594 19.4933 15.1674 19.4853 15.1761L19.4606 15.2008L19.4365 15.2268L19.4138 15.2529L19.3911 15.2803L19.3691 15.3076L19.3484 15.335C19.3411 15.3443 19.3344 15.3544 19.3277 15.3637L19.3084 15.3924C19.3017 15.4024 19.295 15.4118 19.289 15.4218L19.271 15.4518C19.265 15.4612 19.259 15.4718 19.2536 15.4819C19.2483 15.4919 19.2423 15.5019 19.2369 15.5126C19.2316 15.5232 19.2256 15.5326 19.2202 15.5433C19.2149 15.554 19.2102 15.564 19.2055 15.5746C19.2009 15.5853 19.1955 15.596 19.1909 15.606L19.1768 15.6381L19.1642 15.6708L19.1521 15.7035C19.1481 15.7142 19.1441 15.7255 19.1408 15.7362C19.1375 15.7469 19.1335 15.7582 19.1301 15.7696L19.1201 15.803C19.1201 15.8143 19.1141 15.8257 19.1114 15.8363L19.1034 15.8704C19.1034 15.8817 19.0981 15.8931 19.0961 15.9044C19.0941 15.9158 19.0914 15.9278 19.0894 15.9391C19.0874 15.9505 19.0854 15.9618 19.0841 15.9738C19.0827 15.9859 19.0807 15.9965 19.0787 16.0079L19.0747 16.0426C19.0747 16.0546 19.0747 16.066 19.0747 16.078V16.1127C19.0747 16.1247 19.0747 16.1361 19.0747 16.1481C19.0747 16.1601 19.0747 16.1714 19.0747 16.1828C19.0747 16.1941 19.0747 16.2068 19.0747 16.2182C19.0747 16.2295 19.0747 16.2415 19.0747 16.2536Z" fill="white"/>
<path d="M7.6834 21.9499V21.9846C7.6834 21.9966 7.6834 22.008 7.68674 22.0193L7.69075 22.0547C7.69075 22.066 7.69074 22.0774 7.69542 22.0887C7.70009 22.1001 7.69876 22.1121 7.70076 22.1235C7.70276 22.1348 7.70543 22.1462 7.70743 22.1582C7.70944 22.1702 7.71211 22.1809 7.71478 22.1922L7.72279 22.2256C7.72279 22.2369 7.7288 22.2483 7.73213 22.2596C7.73547 22.271 7.73814 22.2823 7.74148 22.293C7.74482 22.3037 7.74882 22.315 7.75216 22.3264C7.7555 22.3377 7.7595 22.3484 7.76351 22.3591L7.77553 22.3918C7.7802 22.4025 7.7842 22.4138 7.78888 22.4245C7.79355 22.4352 7.79756 22.4459 7.80223 22.4566C7.8069 22.4673 7.81224 22.4773 7.81691 22.4879C7.82159 22.4986 7.82693 22.5093 7.83227 22.5193L7.84829 22.55C7.85363 22.5607 7.85964 22.5707 7.86498 22.5807L7.88234 22.6108L7.90036 22.6408L7.91972 22.6702L7.93908 22.6989L7.95977 22.7276C7.96645 22.7369 7.97379 22.7463 7.98113 22.755C7.98848 22.7636 7.99515 22.7737 8.0025 22.7823L8.02519 22.8097L8.04856 22.8357C8.0559 22.8444 8.06391 22.8531 8.07192 22.8611L8.09662 22.8865L8.12199 22.9112L8.14736 22.9352L8.17406 22.9579L8.20076 22.9806L8.22813 23.0026L8.25617 23.0233L8.28421 23.044L8.31291 23.0634L8.34228 23.0827L8.37232 23.1008L8.40237 23.1181L8.43307 23.1348C8.44303 23.1407 8.45328 23.146 8.46378 23.1508L8.49516 23.1662L8.5272 23.1809L8.55924 23.1949L8.59129 23.2076L8.624 23.2196L8.65671 23.2309L8.69008 23.2416L8.72346 23.2516L8.75751 23.2603L8.79155 23.2683L8.8256 23.2757L8.85964 23.2823L8.89436 23.2877L8.92907 23.293L8.96378 23.297H8.9985H9.03321H9.06859H9.13869H9.17407H9.20878H9.24349L9.27887 23.293L9.31292 23.2877L9.34763 23.2823L9.38234 23.2757L9.41639 23.2683L9.44977 23.2603L9.48381 23.2516L9.51719 23.2416L9.55057 23.2309L9.58328 23.2196L9.61599 23.2076L9.6487 23.1949L9.68074 23.1809L9.71212 23.1662L9.7435 23.1508C9.75407 23.1462 9.76432 23.1408 9.7742 23.1348L9.80491 23.1181L9.83495 23.1008L9.86499 23.0827L9.89436 23.0634L9.92307 23.044L9.95177 23.0233L9.97914 23.0026L10.0065 22.9806L10.0339 22.9579L10.0599 22.9352L10.0853 22.9112C10.094 22.9032 10.1026 22.8952 10.1107 22.8865C10.1187 22.8778 10.1273 22.8698 10.1354 22.8611L10.1594 22.8357L10.1821 22.8097L10.2048 22.7823L10.2268 22.755L10.2475 22.7276C10.2548 22.7183 10.2615 22.7082 10.2682 22.6989L10.2876 22.6702C10.2942 22.6602 10.3009 22.6508 10.3069 22.6408L10.3249 22.6108C10.3309 22.6008 10.337 22.5908 10.3423 22.5807C10.3476 22.5707 10.3536 22.5607 10.359 22.55C10.3643 22.5393 10.3703 22.53 10.3757 22.5193C10.381 22.5086 10.3857 22.4986 10.3904 22.4879C10.395 22.4773 10.4004 22.4666 10.405 22.4566L10.4191 22.4245L10.4318 22.3918L10.4438 22.3591C10.4478 22.3484 10.4518 22.3371 10.4551 22.3264C10.4585 22.3157 10.4625 22.3044 10.4658 22.293L10.4758 22.2596C10.4758 22.2483 10.4818 22.2369 10.4845 22.2256L10.4925 22.1922C10.4925 22.1809 10.4978 22.1695 10.4998 22.1582C10.5018 22.1468 10.5045 22.1348 10.5065 22.1235C10.5085 22.1121 10.5105 22.1008 10.5119 22.0887C10.5132 22.0767 10.5152 22.066 10.5172 22.0547L10.5212 22.0193C10.5212 22.008 10.5212 21.9966 10.5212 21.9846V21.9499C10.5212 21.9379 10.5212 21.9265 10.5212 21.9145C10.5212 21.9025 10.5212 21.8911 10.5212 21.8798C10.5212 21.8684 10.5212 21.8558 10.5212 21.8444C10.5212 21.8331 10.5212 21.8211 10.5212 21.809V21.7743C10.5212 21.763 10.5212 21.751 10.5212 21.7396L10.5172 21.7049C10.5172 21.6929 10.5139 21.6815 10.5119 21.6702C10.5099 21.6588 10.5119 21.6468 10.5065 21.6355C10.5012 21.6241 10.5025 21.6128 10.4998 21.6014C10.4972 21.5901 10.4952 21.5787 10.4925 21.5674L10.4845 21.5333C10.4845 21.522 10.4785 21.5106 10.4758 21.4993L10.4658 21.4659C10.4658 21.4552 10.4591 21.4439 10.4551 21.4325C10.4511 21.4212 10.4478 21.4105 10.4438 21.3998L10.4318 21.3671L10.4191 21.3351L10.405 21.303C10.4004 21.2923 10.3957 21.2817 10.3904 21.271C10.385 21.2603 10.3803 21.2503 10.3757 21.2396C10.371 21.2289 10.365 21.2189 10.359 21.2089C10.353 21.1989 10.3483 21.1882 10.3423 21.1782C10.3363 21.1682 10.3309 21.1582 10.3249 21.1481L10.3069 21.1181L10.2876 21.0887L10.2682 21.06L10.2475 21.032L10.2268 21.004L10.2048 20.9766C10.1974 20.9672 10.1901 20.9586 10.1821 20.9499L10.1594 20.9232L10.1354 20.8978L10.1107 20.8724L10.0853 20.8477L10.0599 20.8244L10.0339 20.801L10.0065 20.7783L9.97914 20.757L9.95177 20.7356L9.92307 20.7149L9.89436 20.6955L9.86499 20.6762L9.83495 20.6582L9.80491 20.6408L9.7742 20.6241L9.7435 20.6081L9.71212 20.5927L9.68074 20.5781L9.6487 20.5647L9.61599 20.5514L9.58328 20.5393L9.55057 20.528L9.51719 20.5173L9.48381 20.508L9.44977 20.4986L9.41639 20.4906L9.38234 20.4833L9.34763 20.4766L9.31292 20.4712L9.27887 20.4666L9.24349 20.4626L9.20878 20.4592H9.17407H9.13869H9.06859H9.03321H8.9985L8.96378 20.4626L8.92907 20.4666L8.89436 20.4712L8.85964 20.4766L8.8256 20.4833L8.79155 20.4906L8.75751 20.4986L8.72346 20.508L8.69008 20.5173L8.65671 20.528L8.624 20.5393L8.59129 20.5514L8.55924 20.5647L8.5272 20.5781L8.49516 20.5927L8.46378 20.6081L8.43307 20.6241L8.40237 20.6408L8.37232 20.6582L8.34228 20.6762L8.31291 20.6955L8.28421 20.7149L8.25617 20.7356L8.22813 20.757L8.20076 20.7783L8.17406 20.801L8.14736 20.8244L8.12199 20.8477L8.09662 20.8724L8.07192 20.8978C8.06391 20.9065 8.0559 20.9145 8.04856 20.9232L8.02519 20.9499C8.01785 20.9586 8.00984 20.9672 8.0025 20.9766C7.99515 20.9859 7.98781 20.9946 7.98113 21.004L7.95977 21.032L7.93908 21.06L7.91972 21.0887C7.91304 21.0988 7.90704 21.1088 7.90036 21.1181L7.88234 21.1481L7.86498 21.1782C7.85964 21.1882 7.85363 21.1982 7.84829 21.2089L7.83227 21.2396L7.81691 21.271L7.80223 21.303C7.79756 21.313 7.79288 21.3244 7.78888 21.3351L7.77553 21.3671L7.76351 21.3998C7.7595 21.4105 7.75617 21.4219 7.75216 21.4325C7.74816 21.4432 7.74482 21.4552 7.74148 21.4659C7.73814 21.4766 7.7348 21.4886 7.73213 21.4993C7.72946 21.51 7.72546 21.522 7.72279 21.5333L7.71478 21.5674C7.71478 21.5787 7.7101 21.5901 7.70743 21.6014C7.70476 21.6128 7.70276 21.6241 7.70076 21.6355C7.69876 21.6468 7.69742 21.6588 7.69542 21.6702C7.69342 21.6815 7.69542 21.6929 7.69075 21.7049L7.68674 21.7396C7.68674 21.751 7.68674 21.763 7.6834 21.7743V21.809C7.6834 21.8211 7.6834 21.8331 7.6834 21.8444C7.6834 21.8558 7.6834 21.8678 7.6834 21.8798C7.6834 21.8918 7.6834 21.9032 7.6834 21.9145C7.6834 21.9259 7.68273 21.9379 7.6834 21.9499Z" fill="white"/>
<path d="M13.3797 21.9498C13.3797 21.9612 13.3797 21.9732 13.3797 21.9845C13.3797 21.9959 13.3797 22.0079 13.3797 22.0193L13.3837 22.0546C13.3837 22.066 13.3837 22.0773 13.3884 22.0887L13.3944 22.1234L13.4004 22.1581C13.4004 22.1695 13.4057 22.1808 13.4077 22.1922C13.4097 22.2035 13.4131 22.2148 13.4164 22.2255C13.4197 22.2362 13.4217 22.2482 13.4251 22.2596L13.4351 22.293L13.4451 22.3263L13.4571 22.359C13.4604 22.3702 13.4644 22.3811 13.4691 22.3918C13.4731 22.4024 13.4771 22.4138 13.4818 22.4245L13.4958 22.4565L13.5099 22.4879C13.5152 22.4986 13.5199 22.5092 13.5252 22.5193L13.5412 22.55C13.5466 22.5606 13.5526 22.5707 13.5579 22.5807C13.5633 22.5907 13.5699 22.6007 13.5753 22.6107L13.594 22.6408L13.6127 22.6701L13.6327 22.6988L13.6527 22.7275C13.6601 22.7369 13.6667 22.7462 13.6741 22.7549L13.6961 22.7823L13.7181 22.8096L13.7415 22.8357L13.7655 22.861C13.7735 22.8697 13.7815 22.8784 13.7902 22.8864L13.8149 22.9111L13.841 22.9351L13.867 22.9578L13.8937 22.9805L13.9211 23.0026L13.9491 23.0233L13.9771 23.044L14.0065 23.0633L14.0359 23.0827L14.0653 23.1007L14.0953 23.1181L14.126 23.1347C14.1362 23.1406 14.1467 23.146 14.1574 23.1508L14.1888 23.1661L14.2201 23.1808L14.2522 23.1948L14.2842 23.2075L14.3169 23.2195L14.3503 23.2309L14.383 23.2416L14.4171 23.2516L14.4504 23.2603L14.4845 23.2683L14.5185 23.2756L14.5532 23.2823L14.5873 23.2876L14.622 23.293L14.6567 23.297H14.6914H14.7268H14.7615H14.8323H14.867H14.9017H14.9371L14.9718 23.293L15.0065 23.2876L15.0406 23.2823L15.0753 23.2756L15.1093 23.2683L15.1434 23.2603L15.1768 23.2516L15.2101 23.2416L15.2435 23.2309L15.2762 23.2195L15.3089 23.2075L15.3416 23.1948L15.3737 23.1808L15.4051 23.1661L15.4364 23.1508C15.4472 23.146 15.4576 23.1406 15.4678 23.1347C15.4778 23.1294 15.4885 23.1241 15.4978 23.1181C15.5072 23.1121 15.5185 23.1067 15.5286 23.1007L15.5579 23.0827L15.5873 23.0633C15.5973 23.0573 15.6067 23.0506 15.616 23.044L15.6447 23.0233L15.6727 23.0026L15.7001 22.9805L15.7268 22.9578L15.7529 22.9351L15.7789 22.9111L15.8036 22.8864C15.8123 22.8784 15.8203 22.8697 15.8283 22.861L15.8523 22.8357L15.8757 22.8096L15.8977 22.7823L15.9197 22.7549C15.9271 22.7462 15.9338 22.7369 15.9411 22.7275L15.9611 22.6988L15.9812 22.6701L15.9999 22.6408C16.0059 22.6307 16.0125 22.6207 16.0179 22.6107L16.0359 22.5807C16.0412 22.5707 16.0473 22.5606 16.0526 22.55L16.0686 22.5193C16.074 22.5092 16.0786 22.4986 16.0833 22.4879C16.088 22.4772 16.0933 22.4665 16.098 22.4565L16.112 22.4245C16.1167 22.4138 16.1207 22.4024 16.1247 22.3918C16.1294 22.3811 16.1334 22.3702 16.1367 22.359L16.1487 22.3263L16.1587 22.293L16.1687 22.2596C16.1721 22.2482 16.1748 22.2369 16.1774 22.2255C16.1801 22.2142 16.1834 22.2035 16.1861 22.1922C16.1888 22.1808 16.1908 22.1695 16.1934 22.1581L16.1995 22.1234L16.2055 22.0887C16.2055 22.0773 16.2055 22.066 16.2101 22.0546L16.2141 22.0193C16.2141 22.0079 16.2141 21.9966 16.2141 21.9845C16.2141 21.9725 16.2141 21.9612 16.2141 21.9498C16.2141 21.9385 16.2141 21.9265 16.2141 21.9144V21.8444C16.2141 21.833 16.2141 21.821 16.2141 21.809C16.2141 21.797 16.2141 21.7863 16.2141 21.7743C16.2141 21.7622 16.2141 21.7509 16.2141 21.7395L16.2101 21.7048C16.2101 21.6928 16.2068 21.6815 16.2055 21.6701L16.2041 21.6347L16.1981 21.6007C16.1981 21.5893 16.1928 21.578 16.1908 21.5666C16.1888 21.5553 16.1854 21.544 16.1821 21.5326C16.1788 21.5213 16.1768 21.5099 16.1734 21.4986L16.1634 21.4652L16.1534 21.4318L16.1414 21.3991C16.138 21.388 16.134 21.3771 16.1294 21.3664C16.1254 21.3557 16.1214 21.345 16.1167 21.3343L16.1027 21.3023C16.098 21.2916 16.0933 21.2809 16.088 21.2703C16.0826 21.2596 16.0786 21.2496 16.0733 21.2389L16.0573 21.2082C16.0519 21.1975 16.0459 21.1875 16.0406 21.1775L16.0226 21.1474C16.0172 21.1374 16.0105 21.1274 16.0045 21.1174L15.9858 21.088L15.9658 21.0593L15.9458 21.0313L15.9244 21.0032L15.9024 20.9759L15.8804 20.9492L15.857 20.9224L15.833 20.8971L15.8083 20.8717L15.7836 20.847L15.7575 20.8237L15.7315 20.8003L15.7048 20.7776L15.6774 20.7562L15.6494 20.7349L15.6207 20.7142L15.592 20.6948L15.5626 20.6755L15.5332 20.6574C15.5232 20.6514 15.5132 20.6454 15.5025 20.6401L15.4725 20.6234L15.4411 20.6074L15.4097 20.592L15.3784 20.5773L15.3463 20.564L15.3136 20.5506L15.2809 20.5386L15.2482 20.5273L15.2148 20.5166L15.1814 20.5072L15.148 20.4979L15.114 20.4899L15.08 20.4825L15.0452 20.4759L15.0112 20.4705L14.9765 20.4658L14.9418 20.4618L14.9064 20.4585H14.8717H14.837H14.7662H14.7315H14.6961L14.6614 20.4618L14.6267 20.4658L14.592 20.4705L14.5579 20.4759L14.5232 20.4825L14.4892 20.4899L14.4551 20.4979L14.4217 20.5072L14.3877 20.5166L14.355 20.5273L14.3216 20.5386L14.2889 20.5506L14.2569 20.564L14.2248 20.5773L14.1934 20.592L14.1621 20.6074L14.1307 20.6234L14.1 20.6401L14.0699 20.6574L14.0406 20.6755L14.0112 20.6948L13.9818 20.7142L13.9538 20.7349L13.9257 20.7562L13.8984 20.7776L13.8717 20.8003L13.8456 20.8237L13.8196 20.847L13.7949 20.8717L13.7702 20.8971L13.7462 20.9224L13.7228 20.9492L13.7008 20.9759L13.6787 21.0032L13.6574 21.0313L13.6374 21.0593L13.6173 21.088L13.5986 21.1174L13.5799 21.1474C13.5746 21.1574 13.5686 21.1674 13.5626 21.1775C13.5566 21.1875 13.5512 21.1975 13.5459 21.2082L13.5299 21.2389C13.5245 21.2496 13.5199 21.2602 13.5145 21.2703L13.5005 21.3023L13.4865 21.3343C13.4818 21.345 13.4778 21.3557 13.4738 21.3664C13.4692 21.3771 13.4652 21.388 13.4618 21.3991L13.4498 21.4318L13.4398 21.4652L13.4297 21.4986C13.4297 21.5099 13.4237 21.5213 13.4211 21.5326C13.4184 21.544 13.4151 21.5553 13.4124 21.5666C13.4097 21.578 13.4077 21.5893 13.405 21.6007L13.4004 21.6347L13.3944 21.6695C13.3944 21.6808 13.391 21.6921 13.3897 21.7042L13.3857 21.7389C13.3857 21.7502 13.3857 21.7622 13.3857 21.7736C13.3857 21.7849 13.3857 21.797 13.3857 21.8083C13.3857 21.8197 13.3857 21.8323 13.3857 21.8437V21.9138C13.379 21.9265 13.379 21.9378 13.3797 21.9498Z" fill="white"/>
</svg>
