<svg width="16" height="13" viewBox="0 0 16 13" fill="none" xmlns="http://www.w3.org/2000/svg">
<path d="M6.50149 13C6.27946 13.0002 6.05975 12.9537 5.85593 12.8635C5.65211 12.7732 5.46849 12.6412 5.3164 12.4755L0.410934 6.85219C0.12952 6.52817 -0.0173238 6.10441 0.00163114 5.67116C0.0206023 5.23792 0.203876 4.82931 0.512487 4.53227C0.821081 4.23522 1.23064 4.07338 1.65402 4.08087C2.0774 4.08853 2.4812 4.26503 2.77948 4.57273L6.48523 8.88398L13.1536 0.565546C13.2962 0.39939 13.4698 0.264021 13.664 0.167348C13.8583 0.0706747 14.0695 0.014629 14.2852 0.00250743C14.5009 -0.00963082 14.7168 0.0223882 14.9202 0.0966663C15.1237 0.170961 15.3106 0.28605 15.4703 0.435205C15.6298 0.584344 15.7587 0.76457 15.8495 0.965325C15.9403 1.1661 15.9911 1.38337 15.9989 1.60447C16.0067 1.82558 15.9715 2.04606 15.8952 2.25306C15.819 2.46005 15.7032 2.6494 15.5547 2.81004L7.70122 12.4605C7.55004 12.6294 7.3665 12.7644 7.162 12.8573C6.95749 12.95 6.73657 12.9987 6.51287 13H6.50149Z" fill="url(#paint0_linear_204_193)"/>
<defs>
<linearGradient id="paint0_linear_204_193" x1="-0.390922" y1="-2.36583" x2="18.0829" y2="-0.578709" gradientUnits="userSpaceOnUse">
<stop stop-color="#FF627A"/>
<stop offset="1" stop-color="#FC7317"/>
</linearGradient>
</defs>
</svg>
