<svg width="31" height="30" viewBox="0 0 31 30" fill="none" xmlns="http://www.w3.org/2000/svg">
<path d="M0.916748 15.0413H30.0834V28.1663C30.0834 28.5531 29.9298 28.924 29.6563 29.1975C29.3828 29.471 29.0119 29.6247 28.6251 29.6247H2.37508C1.98831 29.6247 1.61737 29.471 1.34388 29.1975C1.07039 28.924 0.916748 28.5531 0.916748 28.1663V15.0413ZM22.7917 3.37467H28.6251C29.0119 3.37467 29.3828 3.52832 29.6563 3.80181C29.9298 4.0753 30.0834 4.44623 30.0834 4.83301V12.1247H0.916748V4.83301C0.916748 4.44623 1.07039 4.0753 1.34388 3.80181C1.61737 3.52832 1.98831 3.37467 2.37508 3.37467H8.20841V0.458008H11.1251V3.37467H19.8751V0.458008H22.7917V3.37467Z" fill="white"/>
</svg>
