<svg width="30" height="35" viewBox="0 0 30 35" fill="none" xmlns="http://www.w3.org/2000/svg">
<path d="M28.0502 13.7071L25.6843 4.11217C25.5529 3.71785 25.29 3.45498 25.0272 3.1921C18.7181 0.169038 11.3576 0.169038 4.9172 3.1921C4.52288 3.32354 4.26001 3.58642 4.12857 3.98073L1.7627 13.7071C1.7627 13.97 1.7627 14.3643 2.02557 14.6272C2.15701 14.89 2.55132 15.1529 2.8142 15.1529C6.88876 16.073 10.8319 16.4673 14.9065 16.4673C18.981 16.4673 23.0556 16.073 26.9987 15.1529C27.393 15.0215 27.6559 14.89 27.7873 14.6272C28.0502 14.3643 28.0502 13.97 28.0502 13.7071ZM17.5352 10.0269H16.2208V11.3412C16.2208 12.1299 15.6951 12.6556 14.9065 12.6556C14.1178 12.6556 13.5921 12.1299 13.5921 11.3412V10.0269H12.2777C11.4891 10.0269 10.9633 9.50111 10.9633 8.71248C10.9633 7.92386 11.4891 7.39811 12.2777 7.39811H13.5921V6.08373C13.5921 5.2951 14.1178 4.76935 14.9065 4.76935C15.6951 4.76935 16.2208 5.2951 16.2208 6.08373V7.39811H17.5352C18.3238 7.39811 18.8496 7.92386 18.8496 8.71248C18.8496 9.50111 18.3238 10.0269 17.5352 10.0269Z" fill="white"/>
<path d="M28.4447 17.5186C28.1818 17.65 27.919 17.7814 27.6561 17.7814C23.4501 18.7015 19.1126 19.2272 14.9066 19.2272C10.7006 19.2272 6.3632 18.7015 2.1572 17.7814C1.89432 17.7814 1.63144 17.65 1.36857 17.5186C0.317069 18.7015 0.0541939 20.8045 0.842819 23.0389C1.36857 24.7476 2.42007 26.1934 3.73445 26.8506C3.99732 26.9821 4.39163 27.1135 4.65451 27.1135C6.23176 31.8453 10.1749 34.9998 14.9066 34.9998C19.6384 34.9998 23.5815 31.8453 25.1588 27.1135C25.5531 27.1135 25.816 26.9821 26.2103 26.8506C27.3932 26.3249 28.5761 24.8791 29.1019 23.0389C29.6276 20.8045 29.3648 18.7015 28.4447 17.5186Z" fill="white"/>
</svg>
