<svg width="38" height="38" viewBox="0 0 38 38" fill="none" xmlns="http://www.w3.org/2000/svg">
<path d="M18.9999 30.4006C25.2959 30.4006 30.3999 25.2966 30.3999 19.0006C30.3999 12.7045 25.2959 7.60059 18.9999 7.60059C12.7038 7.60059 7.59985 12.7045 7.59985 19.0006C7.59985 25.2966 12.7038 30.4006 18.9999 30.4006Z" fill="white"/>
<path d="M20.2665 0H17.7332V5.06667H20.2665V0Z" fill="white"/>
<path d="M20.2665 32.9326H17.7332V37.9993H20.2665V32.9326Z" fill="white"/>
<path d="M38 17.7334H32.9333V20.2667H38V17.7334Z" fill="white"/>
<path d="M5.06667 17.7334H0V20.2667H5.06667V17.7334Z" fill="white"/>
<path d="M29.7469 27.9558L27.9556 29.7471L31.5382 33.3297L33.3295 31.5384L29.7469 27.9558Z" fill="white"/>
<path d="M6.46149 4.66766L4.67017 6.45898L8.25281 10.0416L10.0441 8.2503L6.46149 4.66766Z" fill="white"/>
<path d="M8.25158 27.9554L4.66895 31.5381L6.46027 33.3294L10.0429 29.7468L8.25158 27.9554Z" fill="white"/>
<path d="M31.5382 4.67029L27.9556 8.25293L29.7469 10.0442L33.3295 6.46161L31.5382 4.67029Z" fill="white"/>
</svg>
