<svg width="161" height="21" viewBox="0 0 161 21" fill="none" xmlns="http://www.w3.org/2000/svg">
<path d="M4.0634 20.4845H0V1.30903H8.92803C10.9311 1.30903 12.4954 1.90318 13.621 3.09146C14.7656 4.26058 15.3379 5.72677 15.3379 7.49003C15.3379 9.23413 14.7656 10.7003 13.621 11.8886C12.4764 13.0769 10.912 13.671 8.92803 13.671H4.0634V20.4845ZM8.38434 10.0774C9.20465 10.0774 9.87235 9.84743 10.3874 9.38745C10.9216 8.90831 11.1887 8.27583 11.1887 7.49003C11.1887 6.70423 10.9216 6.08134 10.3874 5.62136C9.87235 5.14221 9.20465 4.90264 8.38434 4.90264H4.0634V10.0774H8.38434Z" fill="black"/>
<path d="M24.6386 20.8295C21.2429 20.8295 18.553 19.8137 16.569 17.7821L18.7724 14.6772C20.4131 16.4022 22.4352 17.2646 24.8389 17.2646C25.8882 17.2646 26.6989 17.0634 27.2712 16.6609C27.8626 16.2393 28.1583 15.7314 28.1583 15.1372C28.1583 14.6197 27.8817 14.1885 27.3285 13.8435C26.7943 13.4985 26.1171 13.2494 25.2968 13.0961C24.4955 12.9427 23.618 12.7223 22.6641 12.4348C21.7103 12.1473 20.8232 11.8215 20.0029 11.4574C19.2017 11.0932 18.5244 10.5182 17.9712 9.73244C17.437 8.94664 17.17 7.98834 17.17 6.85756C17.17 5.20929 17.8281 3.82935 19.1444 2.71773C20.4607 1.58694 22.2158 1.02155 24.4097 1.02155C27.4429 1.02155 29.9229 1.91276 31.8497 3.69519L29.5891 6.68506C28.082 5.28595 26.2315 4.5864 24.0377 4.5864C23.1792 4.5864 22.5115 4.75889 22.0346 5.10388C21.5577 5.44886 21.3192 5.91843 21.3192 6.51257C21.3192 6.97255 21.5863 7.36545 22.1204 7.69127C22.6737 7.99793 23.3509 8.22792 24.1521 8.38124C24.9725 8.53457 25.85 8.76456 26.7848 9.07122C27.7386 9.3587 28.6162 9.69411 29.4174 10.0774C30.2377 10.4416 30.9149 11.0261 31.4491 11.8311C32.0023 12.6169 32.2789 13.5656 32.2789 14.6772C32.2789 16.5172 31.6208 18.0025 30.3045 19.1333C29.0072 20.2641 27.1186 20.8295 24.6386 20.8295Z" fill="black"/>
<path d="M44.0574 20.8295C41.1767 20.8295 38.7921 19.8999 36.9035 18.0408C35.0339 16.1626 34.0992 13.786 34.0992 10.9111C34.0992 8.03626 35.0339 5.66927 36.9035 3.81018C38.7921 1.93193 41.1767 0.992798 44.0574 0.992798C46.9571 0.992798 49.3417 1.92234 51.2112 3.78143C53.0998 5.64052 54.0442 8.01709 54.0442 10.9111C54.0442 13.8052 53.0998 16.1818 51.2112 18.0408C49.3417 19.8999 46.9571 20.8295 44.0574 20.8295ZM39.8509 15.4247C40.9192 16.613 42.3213 17.2071 44.0574 17.2071C45.7934 17.2071 47.1955 16.613 48.2638 15.4247C49.3321 14.2364 49.8663 12.7319 49.8663 10.9111C49.8663 9.09038 49.3321 7.58586 48.2638 6.39758C47.1955 5.20929 45.7934 4.61515 44.0574 4.61515C42.3213 4.61515 40.9192 5.20929 39.8509 6.39758C38.8016 7.58586 38.277 9.09038 38.277 10.9111C38.277 12.7319 38.8016 14.2364 39.8509 15.4247Z" fill="black"/>
<path d="M72.348 20.4845H67.6837L63.9351 13.671H60.959V20.4845H56.8956V1.30903H65.8237C67.7886 1.30903 69.3434 1.88401 70.488 3.03396C71.6517 4.18392 72.2336 5.66927 72.2336 7.49003C72.2336 9.06163 71.8234 10.3362 71.0031 11.3136C70.2019 12.2911 69.2194 12.914 68.0557 13.1823L72.348 20.4845ZM65.2228 10.0774C66.0621 10.0774 66.7489 9.84743 67.2831 9.38745C67.8172 8.90831 68.0843 8.27583 68.0843 7.49003C68.0843 6.70423 67.8172 6.08134 67.2831 5.62136C66.7489 5.14221 66.0621 4.90264 65.2228 4.90264H60.959V10.0774H65.2228Z" fill="black"/>
<path d="M79.3467 20.4845H75.2833V1.30903H79.3467V20.4845Z" fill="black"/>
<path fill-rule="evenodd" clip-rule="evenodd" d="M101.781 18.0408C103.675 19.8999 106.065 20.8295 108.953 20.8295C111.86 20.8295 114.251 19.8999 116.125 18.0408C118.019 16.1818 118.965 13.8052 118.965 10.9111C118.965 8.01709 118.019 5.64052 116.125 3.78143C114.251 1.92234 111.86 0.992798 108.953 0.992798C106.065 0.992798 103.675 1.93193 101.781 3.81018C99.9069 5.66927 98.9697 8.03626 98.9697 10.9111C98.9697 13.786 99.9069 16.1626 101.781 18.0408ZM83.4985 20.4845H87.5723V12.5498H96.8385V8.95622H87.5723V4.90264H97.0393V1.30903H83.4985V20.4845ZM137.316 20.4845H132.64L128.881 13.671H125.898V20.4845H121.824V1.30903H130.775C132.745 1.30903 134.303 1.88401 135.451 3.03396C136.618 4.18392 137.201 5.66927 137.201 7.49003C137.201 9.06163 136.79 10.3362 135.967 11.3136C135.164 12.2911 134.179 12.914 133.012 13.1823L137.316 20.4845ZM130.172 10.0774C131.014 10.0774 131.702 9.84743 132.238 9.38745C132.773 8.90831 133.041 8.27583 133.041 7.49003C133.041 6.70423 132.773 6.08134 132.238 5.62136C131.702 5.14221 131.014 4.90264 130.172 4.90264H125.898V10.0774H130.172ZM156.898 20.4845H161V1.30903H155.262L150.615 12.8948L145.967 1.30903H140.258V20.4845H144.332V7.0588L149.726 20.4845H151.504L156.898 7.0588V20.4845ZM106.874 6.50403C106.874 5.37051 107.793 4.4516 108.927 4.4516C110.06 4.4516 110.979 5.37051 110.979 6.50403V9.06955H113.545C114.678 9.06955 115.597 9.98845 115.597 11.122C115.597 12.2555 114.678 13.1744 113.545 13.1744H110.979V15.74C110.979 16.8735 110.06 17.7924 108.927 17.7924C107.793 17.7924 106.874 16.8735 106.874 15.74V13.1744H104.309C103.175 13.1744 102.256 12.2555 102.256 11.122C102.256 9.98846 103.175 9.06955 104.309 9.06955H106.874V6.50403Z" fill="url(#paint0_linear_107_9)"/>
<defs>
<linearGradient id="paint0_linear_107_9" x1="81.605" y1="-2.61722" x2="164.143" y2="22.7292" gradientUnits="userSpaceOnUse">
<stop stop-color="#F96D83"/>
<stop offset="1" stop-color="#FF8C40"/>
</linearGradient>
</defs>
</svg>
