<svg width="34" height="33" viewBox="0 0 34 33" fill="none" xmlns="http://www.w3.org/2000/svg">
<path fill-rule="evenodd" clip-rule="evenodd" d="M33.6123 32.6078H0.398621C0.178582 32.6078 0 32.429 0 32.2092C0 29.6309 2.3399 27.6791 4.87653 28.1359C5.89979 25.3912 9.3939 24.5467 11.56 26.5396C12.7927 22.4528 18.7579 22.7539 19.5824 26.954C21.2885 25.6234 23.7514 25.8279 25.2078 27.4561C26.7795 26.9725 28.4924 27.4614 29.5689 28.7221C33.116 28.4165 34.8247 32.6078 33.6123 32.6078Z" fill="white"/>
<path fill-rule="evenodd" clip-rule="evenodd" d="M19.0299 5.909C18.3211 5.909 18.9685 4.94254 17.9713 4.23041C17.7796 4.09348 17.7475 3.82003 17.9041 3.64244C19.915 1.36213 22.2597 0.477788 22.3978 0.457259C28.6693 -0.476909 31.814 4.33225 31.814 4.83551C31.814 5.05814 31.6356 5.23593 31.4036 5.23413L28.8228 5.19128C28.5529 5.1867 28.1076 4.64158 27.7977 4.33684C27.7557 4.85684 27.8198 5.40155 27.3806 5.4462L24.8531 5.70331C24.1495 5.77426 24.815 4.6938 22.5899 4.08351C22.9433 4.57561 23.3971 5.01888 23.2477 5.34455C23.1877 5.4749 23.0625 5.56299 22.9198 5.57515L19.0301 5.909H19.0299Z" fill="white"/>
<path fill-rule="evenodd" clip-rule="evenodd" d="M28.936 17.4646C28.7939 17.4646 28.6617 17.3881 28.5906 17.2651L27.2169 14.8862C27.0806 14.6504 27.3331 13.9313 27.4364 13.499C26.3103 14.3353 26.7856 14.4086 24.5414 12.1642C24.1545 11.7773 25.0558 10.4029 24.2283 9.1239C24.0084 9.7011 23.8041 10.4093 23.8482 10.818C23.9379 11.247 23.5522 11.4194 23.2963 11.3022C20.146 9.85876 18.4844 7.08037 18.3947 7.0132C17.9213 6.65843 18.6059 6.34372 18.6294 5.55684C18.636 5.33003 18.8335 5.15324 19.0596 5.17118C21.8625 5.39341 26.9279 6.33834 29.3573 10.1699C29.4538 10.3204 31.0349 14.7229 29.2621 17.2936C29.1885 17.4015 29.0657 17.4648 28.9358 17.4648L28.936 17.4646Z" fill="white"/>
<path fill-rule="evenodd" clip-rule="evenodd" d="M15.0886 5.90902L11.1654 5.23894C10.876 5.18931 10.7383 4.85208 10.9093 4.61371L11.5286 3.75129C9.30306 4.36237 9.96916 5.44104 9.26539 5.37089L6.73814 5.11397C6.30005 5.06933 6.36722 4.54255 6.33513 4.06142C6.09676 4.44888 5.94309 4.85427 5.62718 4.85886L2.71426 4.90171C2.41091 4.90709 2.21379 4.58062 2.35749 4.31374C3.0495 3.02899 6.0543 -0.728811 11.7207 0.124836C11.8919 0.150746 14.2125 1.36694 16.2142 3.64187C16.7057 4.20054 15.4871 4.30597 15.4871 5.5098C15.4871 5.73024 15.3077 5.90882 15.0888 5.90882L15.0886 5.90902Z" fill="white"/>
<path fill-rule="evenodd" clip-rule="evenodd" d="M5.1825 17.4646C5.05235 17.4646 4.92998 17.4012 4.85544 17.2938C3.08516 14.7512 4.65852 10.3305 4.76017 10.17C7.18976 6.3385 12.255 5.39357 15.0583 5.17134C15.6644 5.1251 15.3354 5.83325 15.803 6.4547C16.0429 6.7736 15.7187 7.0032 15.6784 7.04705C13.9569 9.83819 10.95 11.2433 10.8218 11.3023C10.531 11.4361 10.2077 11.1865 10.2625 10.8712C10.3323 10.4722 10.1196 9.72618 9.89022 9.12387C9.06268 10.4022 9.96376 11.7773 9.5769 12.1641C7.33286 14.4082 7.80822 14.3354 6.68152 13.4987C6.78496 13.9312 7.03729 14.6497 6.90096 14.8859L5.52731 17.2649C5.45596 17.3883 5.32441 17.4642 5.1823 17.4642L5.1825 17.4646Z" fill="white"/>
<path fill-rule="evenodd" clip-rule="evenodd" d="M17.7531 25.1491C17.381 25.1491 16.721 24.2178 15.0815 24.439C14.8547 24.4697 14.6478 24.3001 14.6327 24.0703C14.2725 18.5807 14.4995 12.7989 15.3071 6.88552C15.351 6.56363 15.7424 6.4279 15.9766 6.65053C16.4924 7.14043 17.2723 7.22235 17.8739 6.85582C18.1563 6.68381 18.515 6.91462 18.4768 7.24268C17.8828 12.3127 17.7766 18.0324 18.1509 24.7284C18.1637 24.9582 17.9791 25.1491 17.7529 25.1491H17.7531Z" fill="white"/>
<path fill-rule="evenodd" clip-rule="evenodd" d="M17.0589 7.87956C15.7527 7.87956 14.6899 6.81664 14.6899 5.51036C14.6899 4.20388 15.7525 3.14136 17.0589 3.14136C18.3654 3.14136 19.4285 4.20388 19.4285 5.51036C19.4285 6.81684 18.3654 7.87956 17.0589 7.87956Z" fill="white"/>
</svg>
