<svg width="28" height="28" viewBox="0 0 28 28" fill="none" xmlns="http://www.w3.org/2000/svg">
<path d="M26.1226 6.97251C24.8707 4.82769 23.1725 3.1295 21.0276 1.87761C18.8823 0.625785 16.5405 0 14.0002 0C11.4602 0 9.11764 0.625785 6.97275 1.87761C4.82773 3.12931 3.12953 4.8275 1.87757 6.97251C0.625544 9.11765 -0.000244141 11.4602 -0.000244141 14C-0.000244141 16.5399 0.625735 18.8821 1.87737 21.0274C3.12927 23.1722 4.82747 24.8704 6.97249 26.1224C9.11764 27.3742 11.46 28 13.9999 28C16.5399 28 18.8825 27.3742 21.0275 26.1224C23.1724 24.8708 24.8706 23.1722 26.1224 21.0274C27.374 18.8823 27.9998 16.5398 27.9998 14C27.9998 11.46 27.374 9.11733 26.1226 6.97251ZM22.1669 15.1667C22.1669 15.4826 22.0513 15.7564 21.8203 15.9869C21.5892 16.2177 21.3159 16.3335 21.0001 16.3335H16.3333V20.9998C16.3333 21.3158 16.2175 21.5893 15.9867 21.8206C15.756 22.0512 15.4825 22.1667 15.1664 22.1667H12.8332C12.5172 22.1667 12.2438 22.0512 12.0129 21.8206C11.7819 21.5894 11.6664 21.3158 11.6664 20.9998V16.3335H6.99976C6.68383 16.3335 6.41049 16.2177 6.17948 15.9869C5.9486 15.7564 5.83316 15.4826 5.83316 15.1667V12.8332C5.83316 12.5172 5.94867 12.2438 6.17948 12.0129C6.41043 11.7819 6.68377 11.6664 6.99976 11.6664H11.6666V6.99978C11.6666 6.68379 11.7821 6.41051 12.0131 6.17951C12.244 5.94863 12.5174 5.83319 12.8334 5.83319H15.1669C15.4828 5.83319 15.7564 5.94869 15.9871 6.17951C16.2179 6.41045 16.3337 6.68379 16.3337 6.99978V11.6664H21.0001C21.316 11.6664 21.5895 11.7819 21.8203 12.0129C22.0513 12.2437 22.1669 12.5172 22.1669 12.8332V15.1667Z" fill="url(#paint0_linear_109_430)"/>
<defs>
<linearGradient id="paint0_linear_109_430" x1="-0.684358" y1="-5.09564" x2="31.747" y2="-2.54654" gradientUnits="userSpaceOnUse">
<stop stop-color="#FF627A"/>
<stop offset="1" stop-color="#FC7317"/>
</linearGradient>
</defs>
</svg>
